<svg width="16" height="20" viewBox="0 0 16 20" fill="none" xmlns="http://www.w3.org/2000/svg">
<path d="M7.02088 0.889777L15.1631 2.57438C15.4888 2.64177 15.723 2.92927 15.723 3.2617V16.7385C15.723 16.9 15.6673 17.0566 15.5653 17.1818C15.4633 17.307 15.3213 17.3932 15.1631 17.4259L7.02088 19.1105C6.9189 19.1315 6.81352 19.1297 6.71236 19.105C6.6112 19.0803 6.5168 19.0334 6.436 18.9677C6.35521 18.902 6.29004 18.8192 6.24522 18.7252C6.20041 18.6312 6.17707 18.5284 6.17689 18.4243V1.5771C6.17682 1.47282 6.19998 1.36985 6.24468 1.27565C6.28939 1.18145 6.35453 1.09839 6.43535 1.03251C6.51618 0.966637 6.61066 0.919596 6.71195 0.894809C6.81323 0.870021 6.91876 0.868672 7.02088 0.889777ZM4.49228 2.13863V3.54247H1.40384V16.4578H4.49228V17.8616H0.701919C0.528244 17.8616 0.360758 17.7971 0.231837 17.6807C0.102916 17.5644 0.021715 17.4043 0.00393073 17.2316L0 17.1603V2.84111C0 2.47724 0.276275 2.1785 0.630042 2.14256L0.701919 2.13863H4.49228ZM7.58073 2.43961V17.5618L14.3191 16.1675V3.83334L7.58073 2.43961ZM9.26533 9.15838C9.48872 9.15838 9.70297 9.24713 9.86093 9.40509C10.0189 9.56305 10.1076 9.77729 10.1076 10.0007C10.1076 10.2241 10.0189 10.4383 9.86093 10.5963C9.70297 10.7542 9.48872 10.843 9.26533 10.843C9.04194 10.843 8.8277 10.7542 8.66973 10.5963C8.51177 10.4383 8.42303 10.2241 8.42303 10.0007C8.42303 9.77729 8.51177 9.56305 8.66973 9.40509C8.8277 9.24713 9.04194 9.15838 9.26533 9.15838Z" fill="#384152"/>
</svg>
