<svg width="23" height="22" viewBox="0 0 23 22" fill="none" xmlns="http://www.w3.org/2000/svg">
<path d="M1 21V20C1 18.13 1 17.196 1.402 16.5C1.66529 16.044 2.04398 15.6653 2.5 15.402C3.196 15 4.13 15 6 15L9 19L12 15C13.87 15 14.804 15 15.5 15.402C15.956 15.6653 16.3347 16.044 16.598 16.5C17 17.196 17 18.13 17 20V21M12.937 7L13.955 2.864C14.188 1.917 13.483 1 12.523 1H5.477C4.517 1 3.812 1.917 4.045 2.864L5.063 7M12.937 7V9C12.937 11.209 11.175 13 9 13C6.825 13 5.063 11.209 5.063 9V7M12.937 7H5.063M9 3V5M10 4H8" stroke="white" stroke-width="1.5" stroke-linecap="round" stroke-linejoin="round"/>
</svg>
