<svg width="23" height="22" viewBox="0 0 23 22" fill="none" xmlns="http://www.w3.org/2000/svg">
<path d="M17 21V18C17 15.172 17 13.757 16.121 12.879C15.243 12 13.828 12 11 12H7C4.172 12 2.757 12 1.879 12.879C1 13.757 1 15.172 1 18C1 18.932 1 19.398 1.152 19.765C1.25251 20.0078 1.3999 20.2284 1.58572 20.4143C1.77155 20.6001 1.99218 20.7475 2.235 20.848C2.602 21 3.068 21 4 21V12.5M6.5 12L9.5 21H11.5C11.8978 21 12.2794 20.842 12.5607 20.5607C12.842 20.2794 13 19.8978 13 19.5C13 19.1022 12.842 18.7206 12.5607 18.4393C12.2794 18.158 11.8978 18 11.5 18H9M12.5 5.5V4.5C12.5 4.04037 12.4095 3.58525 12.2336 3.16061C12.0577 2.73597 11.7999 2.35013 11.4749 2.02513C11.1499 1.70012 10.764 1.44231 10.3394 1.26642C9.91475 1.09053 9.45963 1 9 1C8.54037 1 8.08525 1.09053 7.66061 1.26642C7.23597 1.44231 6.85013 1.70012 6.52513 2.02513C6.20012 2.35013 5.94231 2.73597 5.76642 3.16061C5.59053 3.58525 5.5 4.04037 5.5 4.5V5.5C5.5 5.95963 5.59053 6.41475 5.76642 6.83939C5.94231 7.26403 6.20012 7.64987 6.52513 7.97487C6.85013 8.29988 7.23597 8.55769 7.66061 8.73358C8.08525 8.90947 8.54037 9 9 9C9.45963 9 9.91475 8.90947 10.3394 8.73358C10.764 8.55769 11.1499 8.29988 11.4749 7.97487C11.7999 7.64987 12.0577 7.26403 12.2336 6.83939C12.4095 6.41475 12.5 5.95963 12.5 5.5Z" stroke="#384152" stroke-width="1.4" stroke-linecap="round" stroke-linejoin="round"/>
</svg>
